# xmcd
#
# Track frame offsets:
#	150
#	13000
#	27747
#	40135
#	55137
#	66817
#	78635
#	91550
#	102607
#	112887
#	128237
#	142732
#
# Disc length: 2085 seconds
#
# Revision: 0
# Processed by: cddbd v1.4PL0 Copyright (c) Steve Scherf et al.
# Submitted via: audiograbber 1.81.01
#
DISCID=9908230c
DTITLE=Castellina Pasi - I Grandi Successi Originali cd1
DYEAR=1900
DGENRE=pop
TTITLE0=Bella bionda (Valzer)
TTITLE1=Bussa alla mia porta (Beguine)
TTITLE2=Caballeròs (Passo doppio)
TTITLE3=Canto della valle (Tango canzone)
TTITLE4=Casetta del mio paese (Ritmo allegro)
TTITLE5=Ciao ciao (Fox charleston)
TTITLE6=Adios senora (Tango)
TTITLE7=Allegria (Polka)
TTITLE8=Altalena (Mazurka)
TTITLE9=Amore addio (Valzer)
TTITLE10=Appassionatamente (Valzer Lento)
TTITLE11=Bajonero
EXTD=
EXTT0=
EXTT1=
EXTT2=
EXTT3=
EXTT4=
EXTT5=
EXTT6=
EXTT7=
EXTT8=
EXTT9=
EXTT10=
EXTT11=
PLAYORDER=
